# xmcd
#
# Track frame offsets:
#	150
#	17751
#	34688
#	49276
#	70125
#	84666
#	97060
#
# Disc length: 1522 seconds
#
# Revision: 4
# Processed by: cddbd v1.5.2PL0 Copyright (c) Steve Scherf et al.
# Submitted via: audiograbber 1.83.01
#
DISCID=5805f007
DTITLE=Various Artist - Audio 01 05 - Folk and Blues Emotions
DYEAR=2004
DGENRE=Blues
TTITLE0=B_Ella - Things You Do
TTITLE1=B_Ella - Retrospective
TTITLE2=Wolfgang Bernreuther - I Loved Another Woman
TTITLE3=Wolfgang Bernreuther - Help Me
TTITLE4=Wolfgang Bernreuther - Indian Blues
TTITLE5=Wolfgang Bernreuther - Wild Wild West
TTITLE6=Wolfgang Bernreuther - I Hope I'll Play The Blues On The Day I Die
EXTD=
EXTT0=
EXTT1=
EXTT2=
EXTT3=
EXTT4=
EXTT5=
EXTT6=
PLAYORDER=
